<svg width="101" height="100" viewBox="0 0 101 100" fill="none" xmlns="http://www.w3.org/2000/svg">
<path fill-rule="evenodd" clip-rule="evenodd" d="M51.1025 20.4133L80.1025 38.2203V59.26L51.1025 79.6108L22.1025 59.26V38.2203L51.1025 20.4133ZM23.1025 39.4343L38.1545 49.4689L23.1025 58.1352V39.4343ZM23.5323 59.0416L50.6025 78.0383V58.2586L39.0747 50.093L23.5323 59.0416ZM39.1113 48.9049L50.6025 41.7229V21.8938L23.5299 38.5173L39.1113 48.9049ZM51.6025 21.8938V41.7112L64.0747 48.9067L78.6961 38.5302L51.6025 21.8938ZM79.1025 39.468L65.0095 49.4695L79.1025 58.1071V39.468ZM78.6918 59.0283L64.1112 50.0917L51.6025 58.2705V78.0383L78.6918 59.0283ZM51.1138 57.3953L63.1481 49.5266L51.1128 42.5832L40.0043 49.526L51.1138 57.3953Z" fill="white"/>
</svg>
