<svg width="100" height="100" viewBox="0 0 100 100" fill="none" xmlns="http://www.w3.org/2000/svg">
<path fill-rule="evenodd" clip-rule="evenodd" d="M35.4804 68C45.1086 68 52.9608 59.9674 52.9608 50C52.9608 40.0326 45.1086 32 35.4804 32C25.8522 32 18 40.0326 18 50C18 59.9674 25.8522 68 35.4804 68ZM70.6698 62.599C72.3089 59.5097 73.3529 55.1728 73.3529 50.3276C73.3529 45.4824 72.3089 41.1455 70.6698 38.0561C69.0074 34.9226 66.8819 33.3103 64.7941 33.3103C62.7064 33.3103 60.5809 34.9226 58.9184 38.0561C57.2794 41.1455 56.2353 45.4824 56.2353 50.3276C56.2353 55.1728 57.2794 59.5097 58.9184 62.599C60.5809 65.7326 62.7064 67.3448 64.7941 67.3448C66.8819 67.3448 69.0074 65.7326 70.6698 62.599ZM80.0859 61.4832C80.6463 58.6598 81 54.7152 81 50.3276C81 45.94 80.6463 41.9953 80.0859 39.172C79.804 37.7521 79.4798 36.6676 79.1487 35.9621C79.0203 35.6885 78.9053 35.5037 78.8137 35.3861C78.7221 35.5037 78.6072 35.6885 78.4787 35.9621C78.1477 36.6676 77.8234 37.7521 77.5415 39.172C76.9811 41.9953 76.6274 45.94 76.6274 50.3276C76.6274 54.7152 76.9811 58.6598 77.5415 61.4832C77.8234 62.9031 78.1477 63.9876 78.4787 64.693C78.6072 64.9666 78.7221 65.1515 78.8137 65.269C78.9054 65.1515 79.0203 64.9666 79.1487 64.693C79.4798 63.9876 79.804 62.9031 80.0859 61.4832ZM78.68 65.4087C78.68 65.4086 78.6809 65.4079 78.6828 65.4069C78.6809 65.4082 78.68 65.4087 78.68 65.4087ZM78.9446 65.4069C78.9466 65.408 78.9475 65.4087 78.9475 65.4087C78.9474 65.4087 78.9465 65.4081 78.9446 65.4069ZM78.9475 35.2465C78.9475 35.2466 78.9465 35.2472 78.9446 35.2483C78.9465 35.247 78.9475 35.2464 78.9475 35.2465ZM78.6828 35.2483C78.6809 35.2472 78.68 35.2466 78.68 35.2465C78.68 35.2464 78.6809 35.247 78.6828 35.2483ZM53.9608 50C53.9608 60.4934 45.6868 69 35.4804 69C25.274 69 17 60.4934 17 50C17 39.5066 25.274 31 35.4804 31C45.6868 31 53.9608 39.5066 53.9608 50ZM74.3529 50.3276C74.3529 60.2782 70.0733 68.3448 64.7941 68.3448C59.5149 68.3448 55.2353 60.2782 55.2353 50.3276C55.2353 40.3769 59.5149 32.3103 64.7941 32.3103C70.0733 32.3103 74.3529 40.3769 74.3529 50.3276ZM78.8137 66.3793C80.5735 66.3793 82 59.1927 82 50.3276C82 41.4625 80.5735 34.2759 78.8137 34.2759C77.054 34.2759 75.6274 41.4625 75.6274 50.3276C75.6274 59.1927 77.054 66.3793 78.8137 66.3793Z" fill="white"/>
</svg>
