<svg width="101" height="100" viewBox="0 0 101 100" fill="none" xmlns="http://www.w3.org/2000/svg">
<path fill-rule="evenodd" clip-rule="evenodd" d="M67.9358 31.824C69.7343 36.4127 68.604 39.7981 68.2658 40.6404C70.3819 42.972 71.6565 45.9468 71.6565 49.5853C71.6565 61.6625 64.7886 64.852 57.8381 65.8671C57.4226 65.9278 57.0067 65.9807 56.592 66.0273C56.8745 66.2728 57.1497 66.5755 57.405 66.9362C58.2197 68.0875 58.8319 69.8306 58.8319 72.1966C58.8319 75.1775 58.8135 77.7721 58.8012 79.4899C58.7952 80.34 58.7907 80.9754 58.7907 81.3366C58.7907 82.2286 59.3847 83.2658 61.0594 82.9381C74.1563 78.5237 83.6025 66.0397 83.6025 51.3237C83.6025 32.9193 68.8268 18 50.5984 18C32.3783 18 17.6025 32.9193 17.6025 51.3237C17.6025 66.0439 27.057 78.532 40.1745 82.9422C41.8245 83.2492 42.4268 82.2203 42.4268 81.3366C42.4268 80.9691 42.4206 80.3213 42.4123 79.4549C42.4049 78.6897 42.396 77.754 42.3882 76.6904C42.3858 76.3618 42.3835 76.021 42.3814 75.6692C42.0384 75.7444 41.7056 75.8078 41.3826 75.86C33.0611 77.2062 31.2645 71.2009 31.2645 71.2009C29.7672 67.3508 27.6015 66.326 27.6015 66.326C24.6027 64.2599 27.8243 64.3013 27.8243 64.3013C31.1367 64.5378 32.8774 67.7366 32.8774 67.7366C35.8227 72.8273 40.6035 71.3586 42.4845 70.5039C42.6936 68.9879 43.1788 67.8112 43.7773 66.9564C44.0289 66.5972 44.3005 66.2948 44.58 66.048C44.1682 66.0007 43.7552 65.947 43.3425 65.8855C36.4121 64.8531 29.5485 61.6296 29.5485 49.5812C29.5485 45.9426 30.8355 42.9679 32.9475 40.6362C32.6052 39.794 31.4749 36.4044 33.2693 31.8199C33.2693 31.8199 36.0413 30.9237 42.3443 35.2344C44.976 34.4959 47.7975 34.1266 50.6067 34.1142C53.4075 34.1308 56.2332 34.4959 58.869 35.2385C65.1679 30.9279 67.9358 31.824 67.9358 31.824ZM58.6895 34.153C61.7249 32.1299 63.9864 31.2708 65.5564 30.9367C66.375 30.7625 67.0035 30.7316 67.4514 30.7524C67.675 30.7628 67.8523 30.7861 67.9844 30.8102C68.0504 30.8223 68.1049 30.8346 68.1482 30.8455C68.1698 30.8509 68.1885 30.8561 68.2045 30.8607L68.2263 30.8671L68.2356 30.87L68.2398 30.8714L68.2419 30.872C68.2428 30.8723 68.2438 30.8726 67.9358 31.824L68.2438 30.8726L68.6941 31.0184L68.8668 31.4591C70.5116 35.6556 69.8713 38.9432 69.4034 40.424C71.4434 42.8639 72.6565 45.9235 72.6565 49.5853C72.6565 56.2003 70.6525 60.417 67.5265 63.06C64.9364 65.25 61.686 66.262 58.4965 66.7777C59.299 68.1 59.8319 69.9156 59.8319 72.1966C59.8319 74.4276 59.8216 76.4421 59.8113 78.0349C59.8078 78.5769 59.8043 79.0689 59.8012 79.5037C59.7951 80.3499 59.7907 80.979 59.7907 81.3366C59.7907 81.5853 59.8758 81.7682 59.9748 81.8594C60.0382 81.918 60.2418 82.0658 60.8067 81.9679C73.4696 77.6682 82.6025 65.5778 82.6025 51.3237C82.6025 33.4625 68.2654 19 50.5984 19C32.9398 19 18.6025 33.4623 18.6025 51.3237C18.6025 65.5799 27.7411 77.6732 40.422 81.9703C40.9687 82.0586 41.173 81.914 41.2412 81.8511C41.3436 81.7566 41.4268 81.5743 41.4268 81.3366C41.4268 80.9706 41.4206 80.3302 41.4124 79.471C41.4054 78.7483 41.397 77.8707 41.3895 76.8711C37.218 77.5087 34.4728 76.4103 32.7386 74.9559C31.8114 74.1783 31.2104 73.3298 30.84 72.6736C30.6544 72.3448 30.5251 72.0613 30.4403 71.8543C30.3979 71.7507 30.3665 71.6658 30.3447 71.6036C30.3351 71.5762 30.3274 71.5532 30.3214 71.5347C29.6246 69.7544 28.7897 68.6597 28.1601 68.0225C27.8424 67.7008 27.5735 67.4922 27.3954 67.3694C27.3063 67.3079 27.2397 67.2677 27.201 67.2456C27.1824 67.2349 27.1702 67.2285 27.1651 67.2258C27.1649 67.2257 27.1653 67.2259 27.1651 67.2258L27.1007 67.1953L27.0342 67.1495C26.2751 66.6265 25.6897 66.1013 25.4484 65.5233C25.3075 65.1858 25.2644 64.7802 25.4355 64.3824C25.5938 64.0142 25.8754 63.7954 26.0894 63.6723C26.4946 63.4389 26.9803 63.3641 27.2572 63.3333C27.4156 63.3157 27.5557 63.3078 27.6565 63.3042C27.7073 63.3024 27.7493 63.3017 27.7801 63.3014L27.8177 63.3013L27.8298 63.3014L27.8341 63.3014L27.8358 63.3014C27.8361 63.3014 27.8372 63.3014 27.8243 64.3013L27.8372 63.3014L27.8664 63.3018L27.8955 63.3039C29.8711 63.4449 31.3447 64.4675 32.2916 65.3922C32.7687 65.8581 33.1283 66.3141 33.3698 66.6552C33.491 66.8265 33.5838 66.9705 33.648 67.0749C33.6801 67.1271 33.7052 67.1696 33.7231 67.2007C33.7321 67.2162 33.7393 67.229 33.7447 67.2387L33.7473 67.2433C35.0538 69.4969 36.6914 70.2204 38.17 70.3538C39.4618 70.4704 40.7047 70.1395 41.587 69.797C41.8109 68.6143 42.1989 67.6118 42.6901 66.7955C39.5052 66.2716 36.2574 65.2476 33.6694 63.048C30.5508 60.3973 28.5485 56.1801 28.5485 49.5812C28.5485 45.9177 29.7737 42.8593 31.8091 40.4216C31.3373 38.9375 30.6974 35.6473 32.3381 31.4554L32.5108 31.0141L32.9617 30.8684L33.2693 31.8199C32.9617 30.8684 32.9627 30.868 32.9636 30.8677L32.9657 30.8671L32.9699 30.8657L32.9792 30.8629L33.001 30.8564C33.0169 30.8518 33.0357 30.8467 33.0573 30.8413C33.1005 30.8303 33.1551 30.8181 33.2211 30.806C33.3533 30.7819 33.5307 30.7587 33.7545 30.7483C34.2027 30.7274 34.8317 30.7583 35.6511 30.9325C37.2226 31.2665 39.4863 32.1258 42.5241 34.1493C45.1185 33.4663 47.8693 33.1263 50.6022 33.1142L50.6126 33.1142C53.3359 33.1303 56.09 33.4666 58.6895 34.153Z" fill="white"/>
</svg>
