<svg width="100" height="100" viewBox="0 0 100 100" fill="none" xmlns="http://www.w3.org/2000/svg">
<path fill-rule="evenodd" clip-rule="evenodd" d="M78.7572 35.1457L78.7561 35.1415C78.1315 32.789 76.3018 30.9403 73.9949 30.3105L73.991 30.3094C72.885 30.0026 70.8549 29.7548 68.3455 29.5649C65.865 29.3773 63.0009 29.2517 60.2786 29.1678C57.558 29.0839 54.9874 29.0419 53.0965 29.021C52.1512 29.0105 51.3762 29.0052 50.8379 29.0026C50.5687 29.0013 50.3588 29.0007 50.2162 29.0003L50.0001 29C50.0001 29 49.9994 29 49.9994 28C49.9994 28 69.4065 28 74.2583 29.3458C76.9138 30.0707 79.0079 32.1928 79.7226 34.8849C81.0508 39.8021 80.9997 50.0518 80.9997 50.0518C80.9997 50.0518 80.9997 60.2492 79.7231 65.1669C79.0079 67.8585 76.9143 69.981 74.2583 70.7055C69.4065 72 49.9999 72 49.9999 72C49.9999 71 50 71 50 71L50.2168 70.9997C50.3593 70.9994 50.5694 70.9987 50.8385 70.9975C51.3769 70.995 52.152 70.9899 53.0973 70.9798C54.9884 70.9596 57.5592 70.9193 60.28 70.8386C63.0025 70.7579 65.8672 70.6371 68.3485 70.4565C70.8559 70.2741 72.888 70.0357 73.9981 69.7399C76.3029 69.1101 78.1306 67.2627 78.756 64.9125C79.3651 62.5637 79.6818 58.8805 79.8414 55.7148C79.9206 54.1457 79.9602 52.7281 79.98 51.7027C79.9899 51.1902 79.9948 50.7762 79.9973 50.4909C79.9985 50.3483 79.9991 50.2379 79.9994 50.1634L79.9997 50.0792L79.9997 50.0468L79.9999 50.0194L80 49.9348C80 49.8601 79.9999 49.7492 79.9994 49.6059C79.9982 49.3193 79.995 48.9035 79.9871 48.3888C79.9712 47.3589 79.9364 45.9354 79.8604 44.3605C79.707 41.18 79.3898 37.4877 78.7572 35.1457ZM25.7415 70.6542C30.6439 72 49.9999 72 49.9999 72C49.9999 71 50 71 50 71L49.7836 70.9997C49.6414 70.9993 49.432 70.9987 49.1635 70.9974C48.6264 70.9948 47.8533 70.9895 46.91 70.979C45.0231 70.9581 42.4573 70.9161 39.7399 70.8322C37.0209 70.7483 34.1584 70.6227 31.6754 70.4351C29.1645 70.2453 27.1265 69.9974 26.0062 69.6899L26.0048 69.6895C23.698 69.0599 21.8689 67.2113 21.2435 64.8596C20.6348 62.5386 20.3181 58.8564 20.1583 55.6826C20.0792 54.1102 20.0396 52.6877 20.0198 51.6582C20.0099 51.1437 20.0049 50.7279 20.0025 50.4413C20.0012 50.298 20.0006 50.187 20.0003 50.1122L20 50.0276V49.9726L20.0003 49.8884C20.0006 49.8139 20.0012 49.7035 20.0025 49.5609C20.0049 49.2755 20.0099 48.8616 20.0198 48.3491C20.0396 47.3236 20.0792 45.9059 20.1583 44.3368C20.318 41.1708 20.6346 37.4874 21.2439 35.139C21.8695 32.7868 23.7505 30.8882 26.0039 30.2593C27.1146 29.9639 29.1454 29.7258 31.6508 29.5435C34.1321 29.3629 36.9968 29.2421 39.7193 29.1614C42.4401 29.0807 45.0109 29.0404 46.902 29.0202C47.8473 29.0101 48.6223 29.005 49.1607 29.0025C49.4299 29.0013 49.6399 29.0006 49.7825 29.0003L49.9986 29C49.9986 29 49.9994 29 49.9994 28C49.9994 28 30.5928 28 25.741 29.2945C23.1366 30.019 20.9914 32.1933 20.2767 34.8849C19 39.8021 19 50 19 50C19 50 19 60.2492 20.2767 65.1151M43 60.7098V39.2902L62.0397 50L43 60.7098ZM57.9603 50L45 42.7098V57.2902L57.9603 50Z" fill="white"/>
<path d="M49.9999 72C49.9999 71 50 71 50 71L49.7836 70.9997C49.6414 70.9993 49.432 70.9987 49.1635 70.9974C48.6264 70.9948 47.8533 70.9895 46.91 70.979C45.0231 70.9581 42.4573 70.9161 39.7399 70.8322C37.0209 70.7483 34.1584 70.6227 31.6754 70.4351C29.1645 70.2453 27.1265 69.9974 26.0062 69.6899L26.0048 69.6895C23.698 69.0599 21.8689 67.2113 21.2435 64.8596C20.6348 62.5386 20.3181 58.8564 20.1583 55.6826C20.0792 54.1102 20.0396 52.6877 20.0198 51.6582C20.0099 51.1437 20.0049 50.7279 20.0025 50.4413C20.0012 50.298 20.0006 50.187 20.0003 50.1122L20 50.0276V49.9726L20.0003 49.8884C20.0006 49.8139 20.0012 49.7035 20.0025 49.5609C20.0049 49.2755 20.0099 48.8616 20.0198 48.3491C20.0396 47.3236 20.0792 45.9059 20.1583 44.3368C20.318 41.1708 20.6346 37.4874 21.2439 35.139C21.8695 32.7868 23.7505 30.8882 26.0039 30.2593C27.1146 29.9639 29.1454 29.7258 31.6508 29.5435C34.1321 29.3629 36.9968 29.2421 39.7193 29.1614C42.4401 29.0807 45.0109 29.0404 46.902 29.0202C47.8473 29.0101 48.6223 29.005 49.1607 29.0025C49.4299 29.0013 49.6399 29.0006 49.7825 29.0003L49.9986 29C49.9986 29 49.9994 29 49.9994 28C49.9994 28 30.5928 28 25.741 29.2945C23.1366 30.019 20.9914 32.1933 20.2767 34.8849C19 39.8021 19 50 19 50C19 50 19 60.2492 20.2767 65.1151C20.2767 65.1151 20.5 67.3458 22.5 69C24 70.4351 25.7415 70.6542 25.7415 70.6542C30.6439 72 49.9999 72 49.9999 72Z" fill="white"/>
</svg>
