<svg width="100" height="100" viewBox="0 0 100 100" fill="none" xmlns="http://www.w3.org/2000/svg">
<path fill-rule="evenodd" clip-rule="evenodd" d="M70.4771 26H29.5229C27.5773 26 26 27.5773 26 29.5229V70.477C26 72.4227 27.5773 74 29.5229 74H70.477C72.4227 74 74 72.4227 74 70.477V29.5229C74 27.5773 72.4227 26 70.4771 26ZM41.4721 68.1733C41.4721 69.4525 40.4351 70.4895 39.1559 70.4895H33.553C32.2738 70.4895 31.2368 69.4525 31.2368 68.1733V44.6863C31.2368 43.407 32.2738 42.37 33.553 42.37H39.1559C40.4351 42.37 41.4721 43.407 41.4721 44.6863V68.1733ZM36.3545 42.156C32.8625 42.156 30.0317 39.3252 30.0317 35.8332C30.0317 32.3413 32.8625 29.5105 36.3545 29.5105C39.8464 29.5105 42.6772 32.3413 42.6772 35.8332C42.6772 39.3252 39.8465 42.156 36.3545 42.156ZM70.7526 68.2793C70.7526 69.4999 69.763 70.4895 68.5424 70.4895H62.5301C61.3095 70.4895 60.3199 69.4999 60.3199 68.2793V57.2626C60.3199 57.1195 60.3225 56.96 60.3254 56.7873C60.3408 55.8507 60.3627 54.5265 60.0057 53.3317C59.801 52.6467 59.4924 52.0912 59.0539 51.7085C58.6328 51.3411 58.0104 51.0609 57.025 51.0609C55.6021 51.0609 54.7855 51.7529 54.255 52.6752C53.7024 53.6357 53.4915 54.8173 53.4171 55.6179V68.2793C53.4171 69.4999 52.4277 70.4895 51.2069 70.4895H45.392C44.1714 70.4895 43.1818 69.4999 43.1818 68.2793V44.5802C43.1818 43.3596 44.1714 42.37 45.392 42.37H51.2069C52.249 42.37 53.1227 43.0913 53.356 44.0619C53.7582 43.726 54.2067 43.4179 54.7121 43.1476C56.1159 42.3967 57.8843 41.9759 60.1805 41.9759C62.747 41.9759 64.7553 42.5774 66.3013 43.6325C67.8457 44.6865 68.8494 46.1389 69.5004 47.7074C70.754 50.728 70.7532 54.3345 70.7526 56.7623C70.7526 56.8128 70.7526 56.8627 70.7526 56.912V68.2793ZM53.4171 45.3707C53.0417 45.7608 52.7138 46.1841 52.4171 46.6293V44.5802C52.4171 43.9119 51.8753 43.37 51.2069 43.37H45.392C44.7237 43.37 44.1818 43.9119 44.1818 44.5802V68.2793C44.1818 68.9476 44.7237 69.4895 45.392 69.4895H51.2069C51.8754 69.4895 52.4171 68.9476 52.4171 68.2793V55.5726C52.5681 53.8653 53.3196 50.0609 57.025 50.0609C61.4501 50.0609 61.3624 54.8304 61.3255 56.8394C61.3225 56.9992 61.3199 57.1415 61.3199 57.2626V68.2793C61.3199 68.9476 61.8618 69.4895 62.5301 69.4895H68.5424C69.2107 69.4895 69.7526 68.9476 69.7526 68.2793V56.8281C69.7529 51.8691 69.7535 42.9759 60.1805 42.9759C56.7718 42.9759 54.7805 43.9543 53.4171 45.3707ZM29.5229 25H70.4771C72.975 25 75 27.025 75 29.5229V70.477C75 72.975 72.975 75 70.477 75H29.5229C27.025 75 25 72.975 25 70.477V29.5229C25 27.025 27.025 25 29.5229 25ZM39.1559 69.4895C39.8829 69.4895 40.4721 68.9003 40.4721 68.1733V44.6863C40.4721 43.9593 39.8829 43.37 39.1559 43.37H33.553C32.826 43.37 32.2368 43.9593 32.2368 44.6863V68.1733C32.2368 68.9003 32.826 69.4895 33.553 69.4895H39.1559ZM31.0317 35.8332C31.0317 38.7729 33.4148 41.156 36.3545 41.156C39.2942 41.156 41.6772 38.7729 41.6772 35.8332C41.6772 32.8936 39.2941 30.5105 36.3545 30.5105C33.4148 30.5105 31.0317 32.8936 31.0317 35.8332Z" fill="white"/>
</svg>
