<svg width="88" height="100" viewBox="0 0 88 100" fill="none" xmlns="http://www.w3.org/2000/svg">
<path fill-rule="evenodd" clip-rule="evenodd" d="M44 1.1547L1.69873 25.5774V74.4226L44 98.8453L86.3013 74.4226V25.5774L44 1.1547ZM87.3013 25L44 0L0.69873 25V75L44 100L87.3013 75V25Z" fill="#0075FF"/>
<path fill-rule="evenodd" clip-rule="evenodd" d="M44.5 20.4133L73.5 38.2203V59.26L44.5 79.6108L15.5 59.26V38.2203L44.5 20.4133ZM16.5 39.4343L31.552 49.4689L16.5 58.1352V39.4343ZM16.9298 59.0416L44 78.0383V58.2586L32.4721 50.093L16.9298 59.0416ZM32.5087 48.9049L44 41.7229V21.8938L16.9274 38.5173L32.5087 48.9049ZM45 21.8938V41.7112L57.4721 48.9067L72.0936 38.5302L45 21.8938ZM72.5 39.468L58.407 49.4695L72.5 58.1071V39.468ZM72.0893 59.0283L57.5086 50.0917L45 58.2705V78.0383L72.0893 59.0283ZM44.5113 57.3953L56.5456 49.5266L44.5103 42.5832L33.4018 49.526L44.5113 57.3953Z" fill="white"/>
</svg>
