<svg width="88" height="100" viewBox="0 0 88 100" fill="none" xmlns="http://www.w3.org/2000/svg">
<path fill-rule="evenodd" clip-rule="evenodd" d="M44 1.1547L1.69873 25.5774V74.4226L44 98.8453L86.3013 74.4226V25.5774L44 1.1547ZM87.3013 25L44 0L0.69873 25V75L44 100L87.3013 75V25Z" fill="#0075FF"/>
<path fill-rule="evenodd" clip-rule="evenodd" d="M64.4771 26H23.5229C21.5773 26 20 27.5773 20 29.5229V70.477C20 72.4227 21.5773 74 23.5229 74H64.477C66.4227 74 68 72.4227 68 70.477V29.5229C68 27.5773 66.4227 26 64.4771 26ZM35.4721 68.1733C35.4721 69.4525 34.4351 70.4895 33.1559 70.4895H27.553C26.2738 70.4895 25.2368 69.4525 25.2368 68.1733V44.6863C25.2368 43.407 26.2738 42.37 27.553 42.37H33.1559C34.4351 42.37 35.4721 43.407 35.4721 44.6863V68.1733ZM30.3545 42.156C26.8625 42.156 24.0317 39.3252 24.0317 35.8332C24.0317 32.3413 26.8625 29.5105 30.3545 29.5105C33.8464 29.5105 36.6772 32.3413 36.6772 35.8332C36.6772 39.3252 33.8465 42.156 30.3545 42.156ZM64.7526 68.2793C64.7526 69.4999 63.763 70.4895 62.5424 70.4895H56.5301C55.3095 70.4895 54.3199 69.4999 54.3199 68.2793V57.2626C54.3199 57.1195 54.3225 56.96 54.3254 56.7873C54.3408 55.8507 54.3627 54.5265 54.0057 53.3317C53.801 52.6467 53.4924 52.0912 53.0539 51.7085C52.6328 51.3411 52.0104 51.0609 51.025 51.0609C49.6021 51.0609 48.7855 51.7529 48.255 52.6752C47.7024 53.6357 47.4915 54.8173 47.4171 55.6179V68.2793C47.4171 69.4999 46.4277 70.4895 45.2069 70.4895H39.392C38.1714 70.4895 37.1818 69.4999 37.1818 68.2793V44.5802C37.1818 43.3596 38.1714 42.37 39.392 42.37H45.2069C46.249 42.37 47.1227 43.0913 47.356 44.0619C47.7582 43.726 48.2067 43.4179 48.7121 43.1476C50.1159 42.3967 51.8843 41.9759 54.1805 41.9759C56.747 41.9759 58.7553 42.5774 60.3013 43.6325C61.8457 44.6865 62.8494 46.1389 63.5004 47.7074C64.754 50.728 64.7532 54.3345 64.7526 56.7623C64.7526 56.8128 64.7526 56.8627 64.7526 56.912V68.2793ZM47.4171 45.3707C47.0417 45.7608 46.7138 46.1841 46.4171 46.6293V44.5802C46.4171 43.9119 45.8753 43.37 45.2069 43.37H39.392C38.7237 43.37 38.1818 43.9119 38.1818 44.5802V68.2793C38.1818 68.9476 38.7237 69.4895 39.392 69.4895H45.2069C45.8754 69.4895 46.4171 68.9476 46.4171 68.2793V55.5726C46.5681 53.8653 47.3196 50.0609 51.025 50.0609C55.4501 50.0609 55.3624 54.8304 55.3255 56.8394C55.3225 56.9992 55.3199 57.1415 55.3199 57.2626V68.2793C55.3199 68.9476 55.8618 69.4895 56.5301 69.4895H62.5424C63.2107 69.4895 63.7526 68.9476 63.7526 68.2793V56.8281C63.7529 51.8691 63.7535 42.9759 54.1805 42.9759C50.7718 42.9759 48.7805 43.9543 47.4171 45.3707ZM23.5229 25H64.4771C66.975 25 69 27.025 69 29.5229V70.477C69 72.975 66.975 75 64.477 75H23.5229C21.025 75 19 72.975 19 70.477V29.5229C19 27.025 21.025 25 23.5229 25ZM33.1559 69.4895C33.8829 69.4895 34.4721 68.9003 34.4721 68.1733V44.6863C34.4721 43.9593 33.8829 43.37 33.1559 43.37H27.553C26.826 43.37 26.2368 43.9593 26.2368 44.6863V68.1733C26.2368 68.9003 26.826 69.4895 27.553 69.4895H33.1559ZM25.0317 35.8332C25.0317 38.7729 27.4148 41.156 30.3545 41.156C33.2942 41.156 35.6772 38.7729 35.6772 35.8332C35.6772 32.8936 33.2941 30.5105 30.3545 30.5105C27.4148 30.5105 25.0317 32.8936 25.0317 35.8332Z" fill="white"/>
</svg>
