<svg width="88" height="100" viewBox="0 0 88 100" fill="none" xmlns="http://www.w3.org/2000/svg">
<path fill-rule="evenodd" clip-rule="evenodd" d="M44 1.1547L1.69873 25.5774V74.4226L44 98.8453L86.3013 74.4226V25.5774L44 1.1547ZM87.3013 25L44 0L0.69873 25V75L44 100L87.3013 75V25Z" fill="#0075FF"/>
<path fill-rule="evenodd" clip-rule="evenodd" d="M61.3332 31.824C63.1317 36.4127 62.0015 39.7981 61.6632 40.6404C63.7794 42.972 65.054 45.9468 65.054 49.5853C65.054 61.6625 58.186 64.852 51.2356 65.8671C50.82 65.9278 50.4042 65.9807 49.9895 66.0273C50.272 66.2728 50.5472 66.5755 50.8025 66.9362C51.6172 68.0875 52.2294 69.8306 52.2294 72.1966C52.2294 75.1775 52.2109 77.7721 52.1987 79.4899C52.1926 80.34 52.1881 80.9754 52.1881 81.3366C52.1881 82.2286 52.7821 83.2658 54.4569 82.9381C67.5537 78.5237 77 66.0397 77 51.3237C77 32.9193 62.2243 18 43.9959 18C25.7758 18 11 32.9193 11 51.3237C11 66.0439 20.4545 78.532 33.572 82.9422C35.222 83.2492 35.8243 82.2203 35.8243 81.3366C35.8243 80.9691 35.818 80.3213 35.8097 79.4549C35.8024 78.6897 35.7934 77.754 35.7857 76.6904C35.7832 76.3618 35.781 76.021 35.7789 75.6692C35.4359 75.7444 35.103 75.8078 34.78 75.86C26.4586 77.2062 24.662 71.2009 24.662 71.2009C23.1646 67.3508 20.999 66.326 20.999 66.326C18.0001 64.2599 21.2217 64.3013 21.2217 64.3013C24.5341 64.5378 26.2749 67.7366 26.2749 67.7366C29.2201 72.8273 34.001 71.3586 35.882 70.5039C36.0911 68.9879 36.5763 67.8112 37.1748 66.9564C37.4264 66.5972 37.698 66.2948 37.9775 66.048C37.5657 66.0007 37.1527 65.947 36.7399 65.8855C29.8096 64.8531 22.946 61.6296 22.946 49.5812C22.946 45.9426 24.233 42.9679 26.345 40.6362C26.0026 39.794 24.8724 36.4044 26.6667 31.8199C26.6667 31.8199 29.4388 30.9237 35.7418 35.2344C38.3735 34.4959 41.195 34.1266 44.0041 34.1142C46.805 34.1308 49.6306 34.4959 52.2665 35.2385C58.5654 30.9279 61.3332 31.824 61.3332 31.824ZM52.087 34.153C55.1223 32.1299 57.3839 31.2708 58.9538 30.9367C59.7725 30.7625 60.4009 30.7316 60.8488 30.7524C61.0725 30.7628 61.2497 30.7861 61.3818 30.8102C61.4478 30.8223 61.5024 30.8346 61.5456 30.8455C61.5672 30.8509 61.586 30.8561 61.6019 30.8607L61.6237 30.8671L61.633 30.87L61.6373 30.8714L61.6393 30.872C61.6403 30.8723 61.6413 30.8726 61.3332 31.824L61.6413 30.8726L62.0916 31.0184L62.2643 31.4591C63.9091 35.6556 63.2688 38.9432 62.8008 40.424C64.8408 42.8639 66.054 45.9235 66.054 49.5853C66.054 56.2003 64.05 60.417 60.9239 63.06C58.3338 65.25 55.0835 66.262 51.894 66.7777C52.6965 68.1 53.2294 69.9156 53.2294 72.1966C53.2294 74.4276 53.219 76.4421 53.2087 78.0349C53.2052 78.5769 53.2017 79.0689 53.1986 79.5037C53.1926 80.3499 53.1881 80.979 53.1881 81.3366C53.1881 81.5853 53.2732 81.7682 53.3722 81.8594C53.4357 81.918 53.6393 82.0658 54.2042 81.9679C66.8671 77.6682 76 65.5778 76 51.3237C76 33.4625 61.6629 19 43.9959 19C26.3373 19 12 33.4623 12 51.3237C12 65.5799 21.1385 77.6732 33.8195 81.9703C34.3661 82.0586 34.5705 81.914 34.6386 81.8511C34.7411 81.7566 34.8243 81.5743 34.8243 81.3366C34.8243 80.9706 34.8181 80.3302 34.8098 79.471C34.8029 78.7483 34.7945 77.8707 34.787 76.8711C30.6155 77.5087 27.8703 76.4103 26.1361 74.9559C25.2089 74.1783 24.6079 73.3298 24.2375 72.6736C24.0519 72.3448 23.9225 72.0613 23.8378 71.8543C23.7954 71.7507 23.764 71.6658 23.7422 71.6036C23.7326 71.5762 23.7248 71.5532 23.7188 71.5347C23.0221 69.7544 22.1872 68.6597 21.5576 68.0225C21.2399 67.7008 20.9709 67.4922 20.7929 67.3694C20.7037 67.3079 20.6372 67.2677 20.5985 67.2456C20.5799 67.2349 20.5677 67.2285 20.5626 67.2258C20.5624 67.2257 20.5627 67.2259 20.5626 67.2258L20.4982 67.1953L20.4316 67.1495C19.6726 66.6265 19.0872 66.1013 18.8459 65.5233C18.7049 65.1858 18.6619 64.7802 18.833 64.3824C18.9913 64.0142 19.2729 63.7954 19.4868 63.6723C19.8921 63.4389 20.3777 63.3641 20.6546 63.3333C20.8131 63.3157 20.9531 63.3078 21.0539 63.3042C21.1048 63.3024 21.1468 63.3017 21.1775 63.3014L21.2152 63.3013L21.2273 63.3014L21.2316 63.3014L21.2332 63.3014C21.2336 63.3014 21.2346 63.3014 21.2217 64.3013L21.2346 63.3014L21.2638 63.3018L21.293 63.3039C23.2685 63.4449 24.7421 64.4675 25.6891 65.3922C26.1662 65.8581 26.5257 66.3141 26.7673 66.6552C26.8885 66.8265 26.9813 66.9705 27.0454 67.0749C27.0776 67.1271 27.1026 67.1696 27.1206 67.2007C27.1295 67.2162 27.1368 67.229 27.1422 67.2387L27.1448 67.2433C28.4513 69.4969 30.0889 70.2204 31.5674 70.3538C32.8592 70.4704 34.1021 70.1395 34.9845 69.797C35.2084 68.6143 35.5963 67.6118 36.0875 66.7955C32.9027 66.2716 29.6548 65.2476 27.0669 63.048C23.9482 60.3973 21.946 56.1801 21.946 49.5812C21.946 45.9177 23.1711 42.8593 25.2065 40.4216C24.7347 38.9375 24.0948 35.6473 25.7355 31.4554L25.9083 31.0141L26.3591 30.8684L26.6667 31.8199C26.3591 30.8684 26.3601 30.868 26.3611 30.8677L26.3631 30.8671L26.3674 30.8657L26.3767 30.8629L26.3984 30.8564C26.4144 30.8518 26.4331 30.8467 26.4548 30.8413C26.498 30.8303 26.5526 30.8181 26.6186 30.806C26.7507 30.7819 26.9281 30.7587 27.1519 30.7483C27.6002 30.7274 28.2292 30.7583 29.0486 30.9325C30.6201 31.2665 32.8838 32.1258 35.9215 34.1493C38.516 33.4663 41.2667 33.1263 43.9997 33.1142L44.0101 33.1142C46.7334 33.1303 49.4874 33.4666 52.087 34.153Z" fill="white"/>
</svg>
