<svg width="88" height="100" viewBox="0 0 88 100" fill="none" xmlns="http://www.w3.org/2000/svg">
<path fill-rule="evenodd" clip-rule="evenodd" d="M44 1.1547L1.69873 25.5774V74.4226L44 98.8453L86.3013 74.4226V25.5774L44 1.1547ZM87.3013 25L44 0L0.69873 25V75L44 100L87.3013 75V25Z" fill="#0075FF"/>
<path fill-rule="evenodd" clip-rule="evenodd" d="M29.4804 68C39.1086 68 46.9608 59.9674 46.9608 50C46.9608 40.0326 39.1086 32 29.4804 32C19.8522 32 12 40.0326 12 50C12 59.9674 19.8522 68 29.4804 68ZM64.6698 62.599C66.3089 59.5097 67.3529 55.1728 67.3529 50.3276C67.3529 45.4824 66.3089 41.1455 64.6698 38.0561C63.0074 34.9226 60.8819 33.3103 58.7941 33.3103C56.7064 33.3103 54.5809 34.9226 52.9184 38.0561C51.2794 41.1455 50.2353 45.4824 50.2353 50.3276C50.2353 55.1728 51.2794 59.5097 52.9184 62.599C54.5809 65.7326 56.7064 67.3448 58.7941 67.3448C60.8819 67.3448 63.0074 65.7326 64.6698 62.599ZM74.0859 61.4832C74.6463 58.6598 75 54.7152 75 50.3276C75 45.94 74.6463 41.9953 74.0859 39.172C73.804 37.7521 73.4798 36.6676 73.1487 35.9621C73.0203 35.6885 72.9053 35.5037 72.8137 35.3861C72.7221 35.5037 72.6072 35.6885 72.4787 35.9621C72.1477 36.6676 71.8234 37.7521 71.5415 39.172C70.9811 41.9953 70.6274 45.94 70.6274 50.3276C70.6274 54.7152 70.9811 58.6598 71.5415 61.4832C71.8234 62.9031 72.1477 63.9876 72.4787 64.693C72.6072 64.9666 72.7221 65.1515 72.8137 65.269C72.9054 65.1515 73.0203 64.9666 73.1487 64.693C73.4798 63.9876 73.804 62.9031 74.0859 61.4832ZM72.68 65.4087C72.68 65.4086 72.6809 65.4079 72.6828 65.4069C72.6809 65.4082 72.68 65.4087 72.68 65.4087ZM72.9446 65.4069C72.9466 65.408 72.9475 65.4087 72.9475 65.4087C72.9474 65.4087 72.9465 65.4081 72.9446 65.4069ZM72.9475 35.2465C72.9475 35.2466 72.9465 35.2472 72.9446 35.2483C72.9465 35.247 72.9475 35.2464 72.9475 35.2465ZM72.6828 35.2483C72.6809 35.2472 72.68 35.2466 72.68 35.2465C72.68 35.2464 72.6809 35.247 72.6828 35.2483ZM47.9608 50C47.9608 60.4934 39.6868 69 29.4804 69C19.274 69 11 60.4934 11 50C11 39.5066 19.274 31 29.4804 31C39.6868 31 47.9608 39.5066 47.9608 50ZM68.3529 50.3276C68.3529 60.2782 64.0733 68.3448 58.7941 68.3448C53.5149 68.3448 49.2353 60.2782 49.2353 50.3276C49.2353 40.3769 53.5149 32.3103 58.7941 32.3103C64.0733 32.3103 68.3529 40.3769 68.3529 50.3276ZM72.8137 66.3793C74.5735 66.3793 76 59.1927 76 50.3276C76 41.4625 74.5735 34.2759 72.8137 34.2759C71.054 34.2759 69.6274 41.4625 69.6274 50.3276C69.6274 59.1927 71.054 66.3793 72.8137 66.3793Z" fill="white"/>
</svg>
