<svg width="88" height="100" viewBox="0 0 88 100" fill="none" xmlns="http://www.w3.org/2000/svg">
<path fill-rule="evenodd" clip-rule="evenodd" d="M44 1.1547L1.69873 25.5774V74.4226L44 98.8453L86.3013 74.4226V25.5774L44 1.1547ZM87.3013 25L44 0L0.69873 25V75L44 100L87.3013 75V25Z" fill="#0075FF"/>
<path fill-rule="evenodd" clip-rule="evenodd" d="M72.7572 35.1457L72.7561 35.1415C72.1315 32.789 70.3018 30.9403 67.9949 30.3105L67.991 30.3094C66.885 30.0026 64.8549 29.7548 62.3455 29.5649C59.865 29.3773 57.0009 29.2517 54.2786 29.1678C51.558 29.0839 48.9874 29.0419 47.0965 29.021C46.1512 29.0105 45.3762 29.0052 44.8379 29.0026C44.5687 29.0013 44.3588 29.0007 44.2162 29.0003L44.0001 29C44.0001 29 43.9994 29 43.9994 28C43.9994 28 63.4065 28 68.2583 29.3458C70.9138 30.0707 73.0079 32.1928 73.7226 34.8849C75.0508 39.8021 74.9997 50.0518 74.9997 50.0518C74.9997 50.0518 74.9997 60.2492 73.7231 65.1669C73.0079 67.8585 70.9143 69.981 68.2583 70.7055C63.4065 72 43.9999 72 43.9999 72C43.9999 71 44 71 44 71L44.2168 70.9997C44.3593 70.9994 44.5694 70.9987 44.8385 70.9975C45.3769 70.995 46.152 70.9899 47.0973 70.9798C48.9884 70.9596 51.5592 70.9193 54.28 70.8386C57.0025 70.7579 59.8672 70.6371 62.3485 70.4565C64.8559 70.2741 66.888 70.0357 67.9981 69.7399C70.3029 69.1101 72.1306 67.2627 72.756 64.9125C73.3651 62.5637 73.6818 58.8805 73.8414 55.7148C73.9206 54.1457 73.9602 52.7281 73.98 51.7027C73.9899 51.1902 73.9948 50.7762 73.9973 50.4909C73.9985 50.3483 73.9991 50.2379 73.9994 50.1634L73.9997 50.0792L73.9997 50.0468L73.9999 50.0194L74 49.9348C74 49.8601 73.9999 49.7492 73.9994 49.6059C73.9982 49.3193 73.995 48.9035 73.9871 48.3888C73.9712 47.3589 73.9364 45.9354 73.8604 44.3605C73.707 41.18 73.3898 37.4877 72.7572 35.1457ZM19.7415 70.6542C24.6439 72 43.9999 72 43.9999 72C43.9999 71 44 71 44 71L43.7836 70.9997C43.6414 70.9993 43.432 70.9987 43.1635 70.9974C42.6264 70.9948 41.8533 70.9895 40.91 70.979C39.0231 70.9581 36.4573 70.9161 33.7399 70.8322C31.0209 70.7483 28.1584 70.6227 25.6754 70.4351C23.1645 70.2453 21.1265 69.9974 20.0062 69.6899L20.0048 69.6895C19 69.5 16 68 15.2435 64.8596C14.6815 62.5268 14.3181 58.8564 14.1583 55.6826C14.0792 54.1102 14.0396 52.6877 14.0198 51.6582C14.0099 51.1437 14.0049 50.7279 14.0025 50.4413C14.0012 50.298 14.0006 50.187 14.0003 50.1122L14 50.0276V49.9726L14.0003 49.8884C14.0006 49.8139 14.0012 49.7035 14.0025 49.5609C14.0049 49.2755 14.0099 48.8616 14.0198 48.3491C14.0396 47.3236 14.0792 45.9059 14.1583 44.3368C14.318 41.1708 14.6346 37.4874 15.2439 35.139C15.8695 32.7868 17.7505 30.8882 20.0039 30.2593C21.1146 29.9639 23.1454 29.7258 25.6508 29.5435C28.1321 29.3629 30.9968 29.2421 33.7193 29.1614C36.4401 29.0807 39.0109 29.0404 40.902 29.0202C41.8473 29.0101 42.6223 29.005 43.1607 29.0025C43.4299 29.0013 43.6399 29.0006 43.7825 29.0003L43.9986 29C43.9986 29 43.9994 29 43.9994 28C43.9994 28 24.5928 28 19.741 29.2945C17.1366 30.019 14.9914 32.1933 14.2767 34.8849C13 39.8021 13 50 13 50C13 50 13 60.0895 14.247 65C14.2568 65.0387 15.2435 69.4194 19.7415 70.6542ZM37 60.7098V39.2902L56.0397 50L37 60.7098ZM51.9603 50L39 42.7098V57.2902L51.9603 50Z" fill="white"/>
</svg>
