<svg width="88" height="100" viewBox="0 0 88 100" fill="none" xmlns="http://www.w3.org/2000/svg">
<path fill-rule="evenodd" clip-rule="evenodd" d="M44 1.1547L1.69873 25.5774V74.4226L44 98.8453L86.3013 74.4226V25.5774L44 1.1547ZM87.3013 25L44 0L0.69873 25V75L44 100L87.3013 75V25Z" fill="#0075FF"/>
<path fill-rule="evenodd" clip-rule="evenodd" d="M64.5533 38.4722L64.9818 38.1557C66.1167 37.3175 67.169 36.3624 68.1196 35.3104C67.0667 35.5998 65.9839 35.8143 64.877 35.9498L64.233 34.1046C65.4859 33.3368 66.5613 32.294 67.376 31.0569C65.9313 31.6873 64.4099 32.171 62.8299 32.4895L62.2774 32.6009L61.896 32.1859C60.0908 30.2217 57.528 29 54.6946 29C49.2621 29 44.8202 33.5066 44.8202 39.1061C44.8202 39.9049 44.9077 40.6775 45.0769 41.4156L45.3725 42.7056L44.0508 42.6376C35.2666 42.1861 27.4235 38.1177 21.9196 31.8659C21.4665 33.0254 21.216 34.2907 21.216 35.6167C21.216 39.1325 22.9666 42.2288 25.618 44.0362L28.4542 45.9696L25.0234 45.862C23.693 45.8202 22.4179 45.5526 21.2341 45.0986C21.842 49.3292 25.0102 52.6975 29.0531 53.5244L29.1204 55.4677C28.1211 55.7453 27.0694 55.8948 25.9853 55.8948C25.821 55.8948 25.6576 55.8913 25.4952 55.8844C27.1054 59.1194 30.3637 61.3388 34.1185 61.4098L36.883 61.4621L34.7246 63.1903C31.1777 66.0299 26.7874 67.8254 22 68.1211C25.8475 69.9657 30.1376 71 34.6681 71C53.9834 71 64.6067 54.6645 64.6067 40.3957C64.6067 39.9284 64.5972 39.4645 64.5769 39.0043L64.5533 38.4722ZM19.8894 68.1538C19.2455 67.7949 18.6154 67.4134 18 67.0105C18.7114 67.0962 19.4334 67.1462 20.163 67.1603C20.3064 67.163 20.45 67.1644 20.5939 67.1644C25.144 67.1644 29.3694 65.7491 32.8719 63.3244C33.2917 63.0337 33.7012 62.7286 34.0996 62.4096C33.597 62.4001 33.1027 62.3558 32.6189 62.2789C28.9053 61.6888 25.812 59.1806 24.3434 55.777C24.1917 55.4253 24.0573 55.0641 23.9414 54.6945C24.3056 54.7661 24.6756 54.8195 25.0512 54.8531C25.3589 54.8806 25.6703 54.8948 25.9853 54.8948C26.2027 54.8948 26.4186 54.8883 26.6329 54.8753C27.3963 54.8293 28.1391 54.7024 28.8527 54.5042C28.1402 54.3584 27.4529 54.1415 26.7982 53.8609C23.1709 52.3066 20.5434 48.7995 20.1733 44.6303C20.1436 44.296 20.1285 43.9574 20.1285 43.6152C20.1285 43.5656 20.1285 43.5202 20.1301 43.4735C20.2152 43.5219 20.301 43.5691 20.3875 43.6152C20.6312 43.7452 20.8804 43.866 21.1347 43.9772C21.7786 44.259 22.4548 44.4794 23.1561 44.6305C23.7714 44.763 24.4059 44.8421 25.0547 44.8625C24.5491 44.5178 24.0734 44.1307 23.6325 43.7062C21.5282 41.6802 20.216 38.8025 20.216 35.6167C20.216 33.9742 20.567 32.415 21.1932 31.0116C21.3428 30.6763 21.5081 30.35 21.6881 30.0336C21.9123 30.3145 22.1411 30.5914 22.3743 30.8642C27.5077 36.8662 34.8265 40.863 43.0638 41.5679C43.4084 41.5974 43.7545 41.6211 44.1021 41.639C44.0261 41.3073 43.9652 40.9698 43.9197 40.6273C43.8537 40.1302 43.8202 39.6225 43.8202 39.1061C43.8202 32.9743 48.69 28 54.6946 28C57.8227 28 60.648 29.3502 62.6323 31.5092C64.5903 31.1145 66.4545 30.4542 68.1875 29.5663C68.6468 29.331 69.0968 29.0797 69.5369 28.8132C69.3768 29.3242 69.1812 29.8189 68.9533 30.2946C68.3413 31.5715 67.4958 32.7105 66.4747 33.6548C65.9461 34.1437 65.3704 34.5805 64.7556 34.9572C65.499 34.8662 66.2308 34.738 66.9491 34.5739C67.7476 34.3915 68.5295 34.1648 69.2923 33.8956C69.873 33.6907 70.4426 33.4613 71 33.2081C70.6566 33.7333 70.2916 34.2436 69.9064 34.7372C68.6582 36.3367 67.1982 37.7619 65.5759 38.9601C65.597 39.4362 65.6067 39.915 65.6067 40.3957C65.6067 55.0733 54.669 72 34.6681 72C29.312 72 24.2809 70.6016 19.8894 68.1538Z" fill="white"/>
</svg>
